<svg width="206" height="89" viewBox="0 0 206 89" fill="none" xmlns="http://www.w3.org/2000/svg">
<path d="M44.043 0.398438C68.3423 0.399859 88.043 20.0988 88.043 44.3984C88.043 68.6981 68.3423 88.397 44.043 88.3984H36.627V44.7754C26.1411 44.7754 17.6407 53.2759 17.6406 63.7617V88.3984H0.0429688V44.7715H36.625C36.625 34.2858 28.1243 25.7854 17.6387 25.7852H0.0429688V0.398438H44.043ZM55.6123 25.7852C45.1269 25.7857 36.626 34.2859 36.626 44.7715H72.2148V25.7852H55.6123Z" fill="#FF6333"/>
<path d="M183.328 40.7259V52.3366H179.299V23.8828H183.328V35.0734C184.716 32.8709 186.721 31.7697 189.344 31.7697C190.731 31.7697 191.973 32.0752 193.067 32.6863C194.175 33.2846 195.047 34.1758 195.684 35.3598C196.32 36.5438 196.638 38.0142 196.638 39.7711V52.3366H192.609V40.2676C192.609 38.6508 192.221 37.4349 191.444 36.6202C190.668 35.7927 189.585 35.3789 188.198 35.3789C186.823 35.3789 185.664 35.8054 184.722 36.6584C183.793 37.4986 183.328 38.8545 183.328 40.7259Z" fill="#330C00"/>
<path d="M169.296 52.8149C167.756 52.8149 166.368 52.5667 165.133 52.0702C163.898 51.5737 162.899 50.8353 162.135 49.855C161.384 48.8747 160.964 47.6589 160.875 46.2076H164.847C165.076 48.4737 166.534 49.6067 169.22 49.6067C170.493 49.6067 171.499 49.3457 172.237 48.8238C172.988 48.3018 173.364 47.6398 173.364 46.8377C173.364 46.1503 173.097 45.6028 172.562 45.1954C172.027 44.7753 171.327 44.4698 170.461 44.2788L167.119 43.534C163.262 42.6938 161.333 40.7714 161.333 37.7669C161.333 35.9846 162.04 34.5332 163.453 33.4129C164.879 32.2926 166.744 31.7324 169.048 31.7324C171.327 31.7324 173.198 32.3244 174.662 33.5084C176.139 34.6796 176.903 36.2837 176.954 38.3207H173.097C173.084 37.3404 172.715 36.532 171.989 35.8955C171.263 35.2462 170.302 34.9215 169.105 34.9215C167.96 34.9215 167.049 35.1889 166.375 35.7236C165.7 36.2583 165.362 36.9139 165.362 37.6905C165.362 38.378 165.617 38.9318 166.126 39.3519C166.648 39.772 167.361 40.084 168.265 40.2876L171.702 41.0515C173.663 41.4844 175.108 42.1527 176.037 43.0566C176.967 43.9605 177.431 45.1445 177.431 46.6086C177.431 47.8944 177.075 49.002 176.362 49.9314C175.662 50.848 174.701 51.5609 173.478 52.0702C172.256 52.5667 170.862 52.8149 169.296 52.8149Z" fill="#330C00"/>
<path d="M144.347 52.7376C143.036 52.7376 141.833 52.4512 140.738 51.8783C139.656 51.3054 138.777 50.4333 138.103 49.262H138.065V52.3366H134.112V23.8828H138.141V35.0924H138.179C138.828 33.9721 139.694 33.1382 140.776 32.5908C141.858 32.0434 143.055 31.7697 144.366 31.7697C146.098 31.7697 147.619 32.2152 148.93 33.1064C150.242 33.9849 151.26 35.2134 151.986 36.792C152.724 38.3579 153.093 40.1785 153.093 42.2536C153.093 44.3288 152.731 46.1557 152.005 47.7343C151.279 49.3002 150.261 50.5288 148.95 51.4199C147.638 52.2984 146.104 52.7376 144.347 52.7376ZM143.526 49.262C145.156 49.262 146.473 48.6637 147.479 47.467C148.498 46.2703 149.007 44.5325 149.007 42.2536C149.007 39.9748 148.498 38.237 147.479 37.0403C146.473 35.8308 145.156 35.2261 143.526 35.2261C141.807 35.2261 140.433 35.869 139.401 37.1549C138.383 38.428 137.874 40.1276 137.874 42.2536C137.874 44.367 138.383 46.0666 139.401 47.3524C140.433 48.6255 141.807 49.262 143.526 49.262Z" fill="#330C00"/>
<path d="M121.26 52.663C119.249 52.663 117.581 52.1538 116.257 51.1353C114.933 50.1041 114.271 48.5828 114.271 46.5713C114.271 45.0435 114.647 43.8723 115.398 43.0575C116.162 42.23 117.148 41.638 118.358 41.2815C119.58 40.9251 120.872 40.6641 122.234 40.4986C123.495 40.3458 124.494 40.2185 125.232 40.1166C125.971 40.0148 126.493 39.862 126.798 39.6583C127.117 39.4546 127.276 39.1045 127.276 38.608V38.4362C127.276 37.4559 126.919 36.6538 126.206 36.03C125.493 35.3935 124.494 35.0752 123.208 35.0752C121.922 35.0752 120.872 35.3871 120.057 36.0109C119.242 36.622 118.797 37.3922 118.72 38.3216H114.768C114.857 36.3992 115.665 34.8269 117.193 33.6047C118.72 32.3826 120.745 31.7715 123.265 31.7715C125.748 31.7715 127.702 32.3826 129.128 33.6047C130.554 34.8269 131.267 36.4629 131.267 38.5125V52.3384H127.295V49.4739H127.218C126.798 50.2887 126.13 51.0271 125.213 51.6891C124.309 52.3384 122.992 52.663 121.26 52.663ZM122.081 49.4166C123.864 49.4166 125.175 48.9583 126.015 48.0417C126.868 47.1123 127.295 46.0302 127.295 44.7953V42.4273C127.027 42.6437 126.423 42.8411 125.481 43.0193C124.539 43.1848 123.533 43.344 122.463 43.4967C121.356 43.6622 120.382 43.9741 119.542 44.4325C118.701 44.8908 118.281 45.6292 118.281 46.6476C118.281 47.5133 118.619 48.1945 119.293 48.691C119.981 49.1747 120.91 49.4166 122.081 49.4166Z" fill="#330C00"/>
<path d="M113.131 32.1717V35.4944H109.044V47.0096C109.044 47.7608 109.197 48.2827 109.503 48.5755C109.808 48.8684 110.362 49.0148 111.164 49.0148H113.131V52.3375H110.591C106.861 52.3375 104.996 50.7334 104.996 47.5252V35.4944H101.444V32.1717H104.996V26.6719H109.044V32.1717H113.131Z" fill="#330C00"/>
<path d="M202.733 52.3392C201.994 52.3392 201.364 52.0846 200.842 51.5753C200.333 51.0534 200.078 50.4168 200.078 49.6657C200.078 48.9273 200.333 48.2971 200.842 47.7751C201.364 47.2532 201.994 46.9922 202.733 46.9922C203.484 46.9922 204.114 47.2532 204.623 47.7751C205.145 48.2971 205.406 48.9273 205.406 49.6657C205.406 50.4168 205.145 51.0534 204.623 51.5753C204.114 52.0846 203.484 52.3392 202.733 52.3392Z" fill="#330C00"/>
<path d="M154.94 52.3374V32.1715H158.97V52.3374H154.94ZM156.945 28.696C156.232 28.696 155.628 28.4605 155.131 27.9894C154.647 27.5056 154.406 26.92 154.406 26.2325C154.406 25.5323 154.647 24.9467 155.131 24.4757C155.628 23.9919 156.232 23.75 156.945 23.75C157.658 23.75 158.263 23.9919 158.76 24.4757C159.256 24.9467 159.504 25.5323 159.504 26.2325C159.504 26.92 159.256 27.5056 158.76 27.9894C158.263 28.4605 157.658 28.696 156.945 28.696Z" fill="#330C00"/>
<path d="M192.097 76.3117V87.9224H188.068V67.7565H192.021V70.7928C193.396 68.5013 195.426 67.3555 198.112 67.3555C199.5 67.3555 200.741 67.661 201.836 68.2721C202.944 68.8705 203.816 69.7616 204.452 70.9456C205.089 72.1296 205.407 73.6 205.407 75.3569V87.9224H201.378V75.8534C201.378 74.2366 200.99 73.0208 200.213 72.206C199.436 71.3785 198.354 70.9647 196.967 70.9647C195.592 70.9647 194.433 71.3912 193.491 72.2442C192.562 73.0844 192.097 74.4403 192.097 76.3117Z" fill="#330C00"/>
<path d="M176.183 59.5799C178.653 59.5799 180.671 60.1273 182.237 61.2222C183.802 62.3171 184.719 63.8511 184.986 65.8244L180.957 65.8244C180.703 64.8442 180.149 64.1058 179.296 63.6092C178.443 63.1127 177.405 62.8645 176.183 62.8645C174.553 62.8645 173.28 63.3037 172.364 64.1821C171.447 65.0606 170.989 66.3146 170.989 67.9442L170.989 70.9996L171.008 70.9996C171.708 69.8283 172.593 68.9626 173.662 68.4025C174.719 67.8423 175.909 67.5622 177.233 67.5622C178.99 67.5622 180.524 68.0014 181.836 68.8799C183.147 69.771 184.165 70.9932 184.891 72.5464C185.617 74.1123 185.979 75.9201 185.979 77.9698C185.979 80.0195 185.617 81.8273 184.891 83.3932C184.153 84.9591 183.128 86.1813 181.816 87.0597C180.505 87.9509 178.984 88.3965 177.252 88.3965C175.941 88.3965 174.738 88.1164 173.643 87.5562C172.548 86.9961 171.663 86.1176 170.989 84.9209L170.97 84.9209L170.97 87.9955L166.998 87.9955L166.998 68.0969C166.998 66.06 167.411 64.4177 168.239 63.17C169.066 61.9224 170.174 61.0121 171.562 60.4392C172.949 59.8663 174.49 59.5799 176.183 59.5799ZM176.412 71.0187C174.693 71.0187 173.325 71.6489 172.306 72.9092C171.275 74.1823 170.76 75.8756 170.76 77.9889C170.76 80.1022 171.275 81.7891 172.306 83.0495C173.325 84.3226 174.693 84.9591 176.412 84.9591C178.042 84.9591 179.366 84.3608 180.384 83.164C181.39 81.9801 181.893 80.255 181.893 77.9889C181.893 75.7228 181.39 73.9914 180.384 72.7947C179.366 71.6107 178.042 71.0187 176.412 71.0187Z" fill="#330C00"/>
<path d="M160.345 87.9214V67.7555H164.374V87.9214H160.345ZM162.35 64.28C161.637 64.28 161.032 64.0444 160.536 63.5734C160.052 63.0896 159.81 62.504 159.81 61.8165C159.81 61.1163 160.052 60.5307 160.536 60.0597C161.032 59.5759 161.637 59.334 162.35 59.334C163.063 59.334 163.668 59.5759 164.164 60.0597C164.661 60.5307 164.909 61.1163 164.909 61.8165C164.909 62.504 164.661 63.0896 164.164 63.5734C163.668 64.0444 163.063 64.28 162.35 64.28Z" fill="#330C00"/>
<path d="M150.342 88.3989C148.802 88.3989 147.414 88.1507 146.179 87.6542C144.944 87.1576 143.945 86.4193 143.181 85.439C142.43 84.4587 142.01 83.2429 141.921 81.7915H145.893C146.122 84.0577 147.58 85.1907 150.266 85.1907C151.539 85.1907 152.545 84.9297 153.283 84.4078C154.034 83.8858 154.41 83.2238 154.41 82.4217C154.41 81.7342 154.142 81.1868 153.608 80.7794C153.073 80.3593 152.373 80.0538 151.507 79.8628L148.165 79.118C144.308 78.2778 142.379 76.3554 142.379 73.3509C142.379 71.5686 143.086 70.1172 144.499 68.9969C145.925 67.8766 147.79 67.3164 150.094 67.3164C152.373 67.3164 154.244 67.9084 155.708 69.0924C157.185 70.2636 157.949 71.8677 158 73.9047H154.142C154.13 72.9244 153.76 72.116 153.035 71.4794C152.309 70.8302 151.348 70.5055 150.151 70.5055C149.005 70.5055 148.095 70.7729 147.42 71.3076C146.746 71.8423 146.408 72.4979 146.408 73.2745C146.408 73.962 146.663 74.5158 147.172 74.9359C147.694 75.356 148.407 75.6679 149.311 75.8716L152.748 76.6355C154.709 77.0683 156.154 77.7367 157.083 78.6406C158.013 79.5445 158.477 80.7285 158.477 82.1926C158.477 83.4784 158.121 84.586 157.408 85.5154C156.708 86.432 155.747 87.1449 154.524 87.6542C153.302 88.1507 151.908 88.3989 150.342 88.3989Z" fill="#330C00"/>
<path d="M131.88 88.3794C129.881 88.3794 128.162 87.9274 126.724 87.0235C125.298 86.1196 124.197 84.8784 123.42 83.2997C122.656 81.7084 122.274 79.9006 122.274 77.8763C122.274 75.8266 122.675 74.0061 123.477 72.4147C124.28 70.8234 125.387 69.5757 126.8 68.6718C128.213 67.7552 129.837 67.2969 131.67 67.2969C133.58 67.2969 135.235 67.7425 136.635 68.6336C138.048 69.5248 139.143 70.7661 139.92 72.3574C140.696 73.9361 141.084 75.763 141.084 77.8381V78.9266H126.246C126.323 80.7472 126.845 82.2176 127.812 83.3379C128.793 84.4582 130.168 85.0184 131.937 85.0184C133.261 85.0184 134.35 84.7192 135.203 84.1209C136.056 83.5225 136.622 82.7459 136.902 81.7911H140.779C140.537 83.0897 139.996 84.2355 139.156 85.2285C138.328 86.2215 137.284 86.9981 136.024 87.5582C134.776 88.1057 133.395 88.3794 131.88 88.3794ZM126.285 75.8712H137.151C136.985 74.2671 136.419 73.0004 135.451 72.071C134.483 71.1289 133.236 70.6579 131.708 70.6579C130.18 70.6579 128.933 71.1289 127.965 72.071C127.01 73.0004 126.45 74.2671 126.285 75.8712Z" fill="#330C00"/>
<path d="M110.19 88.3216C108.433 88.3216 106.899 87.8824 105.588 87.0039C104.277 86.1128 103.258 84.8842 102.533 83.3183C101.807 81.7397 101.444 79.9128 101.444 77.8376C101.444 75.7625 101.807 73.9419 102.533 72.376C103.271 70.7974 104.296 69.5688 105.607 68.6904C106.918 67.7992 108.44 67.3536 110.171 67.3536C111.482 67.3536 112.679 67.6274 113.761 68.1748C114.843 68.7222 115.709 69.5561 116.358 70.6764H116.397V59.4668H120.426V87.9206H116.473V84.846H116.435C115.76 86.0173 114.875 86.8893 113.78 87.4622C112.698 88.0351 111.502 88.3216 110.19 88.3216ZM111.011 84.846C112.73 84.846 114.099 84.2095 115.117 82.9364C116.148 81.6505 116.664 79.951 116.664 77.8376C116.664 75.7115 116.148 74.012 115.117 72.7389C114.099 71.453 112.73 70.8101 111.011 70.8101C109.382 70.8101 108.058 71.4148 107.039 72.6243C106.034 73.821 105.531 75.5588 105.531 77.8376C105.531 80.1165 106.034 81.8542 107.039 83.051C108.058 84.2477 109.382 84.846 111.011 84.846Z" fill="#330C00"/>
<path d="M47.1572 69.0469C48.1906 69.0469 49.156 69.2429 50.0527 69.6357C50.9582 70.0202 51.7532 70.5549 52.4365 71.2383C53.1197 71.9215 53.6538 72.7158 54.0381 73.6211C54.4225 74.518 54.6143 75.4798 54.6143 76.5049C54.6142 77.5298 54.4224 78.495 54.0381 79.4004C53.6537 80.2973 53.1199 81.0881 52.4365 81.7715C51.7531 82.4549 50.9582 82.9928 50.0527 83.3857C49.1559 83.7701 48.1906 83.9618 47.1572 83.9619C46.1322 83.9619 45.1662 83.7701 44.2607 83.3857C43.364 82.9929 42.5739 82.4546 41.8906 81.7715C41.2072 81.0881 40.6683 80.2973 40.2754 79.4004C39.8911 78.4951 39.6993 77.5298 39.6992 76.5049C39.6992 75.4798 39.891 74.5181 40.2754 73.6211C40.6683 72.7156 41.2072 71.9217 41.8906 71.2383C42.574 70.5549 43.3638 70.0202 44.2607 69.6357C45.1662 69.2428 46.1322 69.0469 47.1572 69.0469ZM47.1572 70.8408C46.115 70.8408 45.1616 71.0968 44.2988 71.6094C43.4447 72.1134 42.7615 72.7974 42.249 73.6602C41.7451 74.5143 41.4932 75.4628 41.4932 76.5049C41.4932 77.5469 41.7451 78.4996 42.249 79.3623C42.7615 80.2163 43.4449 80.8996 44.2988 81.4121C45.1616 81.9161 46.1151 82.168 47.1572 82.168C48.2077 82.1679 49.1605 81.916 50.0146 81.4121C50.8687 80.8996 51.5478 80.2163 52.0518 79.3623C52.5642 78.4996 52.8202 77.5469 52.8203 76.5049C52.8203 75.4628 52.5642 74.5143 52.0518 73.6602C51.5478 72.7975 50.8688 72.1134 50.0146 71.6094C49.1605 71.0969 48.2077 70.8409 47.1572 70.8408ZM48.0283 72.9932C48.3101 72.9847 48.6181 73.0624 48.9512 73.2246C49.284 73.3784 49.5664 73.617 49.7969 73.9414C50.036 74.266 50.1553 74.6765 50.1553 75.1719C50.1553 75.6502 50.0444 76.0607 49.8223 76.4023C49.6002 76.7354 49.3348 76.9957 49.0273 77.1836L50.4375 79.8613H48.7715L47.5537 77.5293H46.0547V79.8613H44.543V72.9932H48.0283ZM46.0547 76.4023H47.4639C47.6688 76.4108 47.8917 76.3124 48.1309 76.1074C48.37 75.9024 48.4892 75.5904 48.4893 75.1719C48.4893 74.7535 48.3656 74.4715 48.1182 74.3262C47.8792 74.1725 47.6695 74.0958 47.4902 74.0957H46.0547V76.4023Z" fill="white"/>
</svg>
