<svg width="127" height="54" viewBox="0 0 127 54" fill="none" xmlns="http://www.w3.org/2000/svg">
<path d="M27.3379 0C42.2496 0 54.3379 12.0883 54.3379 27C54.3379 41.9117 42.2496 54 27.3379 54H0.337891V27.2285H22.7861C22.7859 20.7942 17.5701 15.5781 11.1357 15.5781H0.337891V0H27.3379ZM22.7871 27.2295C16.3527 27.2295 11.137 32.4456 11.1367 38.8799V53.999H22.7871V27.2295ZM34.4375 15.5781C28.0032 15.5782 22.7874 20.7943 22.7871 27.2285H44.625V15.5781H34.4375Z" fill="#FF6333"/>
<path d="M112.808 24.7467V31.8714H110.336V14.4111H112.808V21.2781C113.66 19.9265 114.89 19.2508 116.5 19.2508C117.351 19.2508 118.113 19.4383 118.785 19.8133C119.464 20.1804 119.999 20.7273 120.39 21.4538C120.781 22.1804 120.976 23.0827 120.976 24.1608V31.8714H118.503V24.4654C118.503 23.4733 118.265 22.7272 117.789 22.2272C117.312 21.7194 116.648 21.4655 115.796 21.4655C114.953 21.4655 114.242 21.7273 113.664 22.2507C113.093 22.7663 112.808 23.5983 112.808 24.7467Z" fill="white"/>
<path d="M104.197 32.1645C103.252 32.1645 102.401 32.0122 101.643 31.7075C100.885 31.4028 100.272 30.9497 99.8029 30.3482C99.342 29.7467 99.0842 29.0006 99.0295 28.11H101.467C101.608 29.5006 102.502 30.1959 104.15 30.1959C104.932 30.1959 105.549 30.0357 106.002 29.7154C106.463 29.3951 106.693 28.9889 106.693 28.4967C106.693 28.0749 106.529 27.7389 106.201 27.4889C105.873 27.2311 105.443 27.0436 104.912 26.9265L102.861 26.4694C100.494 25.9538 99.3108 24.7742 99.3108 22.9305C99.3108 21.8368 99.7444 20.9462 100.612 20.2587C101.486 19.5713 102.631 19.2275 104.045 19.2275C105.443 19.2275 106.592 19.5908 107.49 20.3173C108.396 21.0361 108.865 22.0204 108.896 23.2704H106.529C106.521 22.6688 106.295 22.1727 105.85 21.7821C105.404 21.3837 104.814 21.1845 104.08 21.1845C103.377 21.1845 102.818 21.3486 102.404 21.6767C101.99 22.0048 101.783 22.4071 101.783 22.8836C101.783 23.3055 101.94 23.6453 102.252 23.9031C102.572 24.1609 103.01 24.3523 103.565 24.4773L105.674 24.9461C106.877 25.2117 107.764 25.6218 108.334 26.1765C108.904 26.7312 109.189 27.4577 109.189 28.3561C109.189 29.1451 108.971 29.8248 108.533 30.3951C108.103 30.9576 107.514 31.395 106.764 31.7075C106.014 32.0122 105.158 32.1645 104.197 32.1645Z" fill="white"/>
<path d="M88.8875 32.1175C88.0828 32.1175 87.3445 31.9417 86.6727 31.5902C86.0087 31.2386 85.4696 30.7035 85.0556 29.9847H85.0321V31.8714H82.6064V14.4111H85.079V21.2898H85.1024C85.5009 20.6023 86.0321 20.0906 86.6961 19.7547C87.3602 19.4188 88.0945 19.2508 88.8992 19.2508C89.9616 19.2508 90.8952 19.5242 91.6998 20.0711C92.5045 20.6101 93.1295 21.364 93.5748 22.3327C94.0279 23.2936 94.2544 24.4107 94.2544 25.6841C94.2544 26.9575 94.0318 28.0786 93.5865 29.0473C93.1412 30.0082 92.5162 30.7621 91.7116 31.3089C90.9069 31.848 89.9655 32.1175 88.8875 32.1175ZM88.3836 29.9847C89.3835 29.9847 90.1921 29.6176 90.8093 28.8832C91.4342 28.1489 91.7467 27.0825 91.7467 25.6841C91.7467 24.2858 91.4342 23.2194 90.8093 22.485C90.1921 21.7429 89.3835 21.3718 88.3836 21.3718C87.3289 21.3718 86.4852 21.7663 85.8524 22.5553C85.2274 23.3366 84.9149 24.3795 84.9149 25.6841C84.9149 26.981 85.2274 28.0239 85.8524 28.8129C86.4852 29.5941 87.3289 29.9847 88.3836 29.9847Z" fill="white"/>
<path d="M74.7213 32.0708C73.4869 32.0708 72.4635 31.7583 71.6511 31.1333C70.8386 30.5005 70.4324 29.567 70.4324 28.3327C70.4324 27.3952 70.6628 26.6765 71.1238 26.1765C71.5925 25.6687 72.1979 25.3054 72.9401 25.0867C73.6901 24.8679 74.483 24.7078 75.3189 24.6062C76.0923 24.5125 76.7056 24.4344 77.1587 24.3719C77.6118 24.3094 77.9321 24.2156 78.1196 24.0906C78.3149 23.9656 78.4125 23.7508 78.4125 23.4461V23.3407C78.4125 22.7391 78.1938 22.247 77.7563 21.8642C77.3188 21.4735 76.7056 21.2782 75.9165 21.2782C75.1275 21.2782 74.483 21.4696 73.983 21.8524C73.483 22.2274 73.2096 22.7001 73.1627 23.2704H70.737C70.7917 22.0907 71.2878 21.1259 72.2253 20.3759C73.1627 19.626 74.4049 19.251 75.9517 19.251C77.4751 19.251 78.6742 19.626 79.5492 20.3759C80.4242 21.1259 80.8617 22.1298 80.8617 23.3875V31.8716H78.4243V30.1138H78.3774C78.1196 30.6138 77.7094 31.0669 77.147 31.4732C76.5923 31.8716 75.7837 32.0708 74.7213 32.0708ZM75.2252 30.0787C76.3189 30.0787 77.1235 29.7974 77.6391 29.235C78.1625 28.6647 78.4243 28.0006 78.4243 27.2429V25.7898C78.2602 25.9226 77.8891 26.0437 77.311 26.1531C76.7329 26.2546 76.1157 26.3523 75.4595 26.446C74.7799 26.5476 74.1822 26.739 73.6666 27.0202C73.151 27.3014 72.8932 27.7546 72.8932 28.3795C72.8932 28.9108 73.1002 29.3287 73.5143 29.6334C73.9361 29.9302 74.5064 30.0787 75.2252 30.0787Z" fill="white"/>
<path d="M69.7329 19.4969V21.5359H67.2252V28.6021C67.2252 29.063 67.3189 29.3833 67.5064 29.563C67.6939 29.7426 68.0337 29.8325 68.5259 29.8325H69.7329V31.8715H68.1743C65.8854 31.8715 64.7409 30.8871 64.7409 28.9184V21.5359H62.5613V19.4969H64.7409V16.1221H67.2252V19.4969H69.7329Z" fill="white"/>
<path d="M124.716 31.871C124.262 31.871 123.876 31.7147 123.555 31.4022C123.243 31.0819 123.087 30.6913 123.087 30.2304C123.087 29.7773 123.243 29.3906 123.555 29.0703C123.876 28.75 124.262 28.5898 124.716 28.5898C125.176 28.5898 125.563 28.75 125.876 29.0703C126.196 29.3906 126.356 29.7773 126.356 30.2304C126.356 30.6913 126.196 31.0819 125.876 31.4022C125.563 31.7147 125.176 31.871 124.716 31.871Z" fill="white"/>
<path d="M95.3882 31.8714V19.4969H97.8607V31.8714H95.3882ZM96.6186 17.3641C96.1811 17.3641 95.81 17.2196 95.5054 16.9306C95.2085 16.6337 95.0601 16.2743 95.0601 15.8525C95.0601 15.4228 95.2085 15.0634 95.5054 14.7744C95.81 14.4775 96.1811 14.3291 96.6186 14.3291C97.0561 14.3291 97.4272 14.4775 97.7318 14.7744C98.0365 15.0634 98.1888 15.4228 98.1888 15.8525C98.1888 16.2743 98.0365 16.6337 97.7318 16.9306C97.4272 17.2196 97.0561 17.3641 96.6186 17.3641Z" fill="white"/>
<path d="M118.188 46.5818V53.7065H115.716V41.332H118.142V43.1952C118.985 41.789 120.231 41.0859 121.88 41.0859C122.731 41.0859 123.493 41.2734 124.165 41.6484C124.844 42.0156 125.38 42.5624 125.77 43.289C126.161 44.0155 126.356 44.9178 126.356 45.9959V53.7065H123.883V46.3006C123.883 45.3084 123.645 44.5624 123.169 44.0624C122.692 43.5546 122.028 43.3007 121.177 43.3007C120.333 43.3007 119.622 43.5624 119.044 44.0858C118.474 44.6014 118.188 45.4334 118.188 46.5818Z" fill="white"/>
<path d="M108.424 36.3151C109.939 36.3151 111.177 36.6511 112.138 37.3229C113.099 37.9948 113.662 38.9361 113.826 40.147L111.353 40.147C111.197 39.5455 110.857 39.0924 110.334 38.7877C109.81 38.483 109.174 38.3307 108.424 38.3307C107.424 38.3307 106.642 38.6002 106.08 39.1392C105.517 39.6783 105.236 40.4478 105.236 41.4478L105.236 43.3227L105.248 43.3227C105.678 42.604 106.221 42.0727 106.877 41.729C107.525 41.3853 108.256 41.2134 109.068 41.2134C110.146 41.2134 111.088 41.4829 111.892 42.0219C112.697 42.5688 113.322 43.3188 113.767 44.2719C114.212 45.2328 114.435 46.3421 114.435 47.5999C114.435 48.8576 114.212 49.967 113.767 50.9279C113.314 51.8888 112.685 52.6387 111.88 53.1778C111.076 53.7246 110.142 53.998 109.08 53.998C108.275 53.998 107.537 53.8262 106.865 53.4824C106.193 53.1387 105.65 52.5997 105.236 51.8653L105.224 51.8653L105.224 53.752L102.787 53.752L102.787 41.5415C102.787 40.2915 103.041 39.2838 103.549 38.5182C104.057 37.7526 104.736 37.194 105.588 36.8425C106.439 36.4909 107.385 36.3151 108.424 36.3151ZM108.564 43.3344C107.51 43.3344 106.67 43.7211 106.045 44.4945C105.412 45.2757 105.096 46.3148 105.096 47.6116C105.096 48.9084 105.412 49.9435 106.045 50.7169C106.67 51.4981 107.51 51.8888 108.564 51.8888C109.564 51.8888 110.377 51.5216 111.002 50.7872C111.619 50.0607 111.927 49.0021 111.927 47.6116C111.927 46.221 111.619 45.1585 111.002 44.4242C110.377 43.6977 109.564 43.3344 108.564 43.3344Z" fill="white"/>
<path d="M98.7043 53.7063V41.3318H101.177V53.7063H98.7043ZM99.9348 39.1991C99.4973 39.1991 99.1262 39.0546 98.8215 38.7655C98.5247 38.4687 98.3762 38.1093 98.3762 37.6874C98.3762 37.2578 98.5247 36.8984 98.8215 36.6094C99.1262 36.3125 99.4973 36.1641 99.9348 36.1641C100.372 36.1641 100.743 36.3125 101.048 36.6094C101.353 36.8984 101.505 37.2578 101.505 37.6874C101.505 38.1093 101.353 38.4687 101.048 38.7655C100.743 39.0546 100.372 39.1991 99.9348 39.1991Z" fill="white"/>
<path d="M92.5665 53.9995C91.6212 53.9995 90.7696 53.8472 90.0119 53.5425C89.2541 53.2378 88.6408 52.7847 88.1721 52.1832C87.7112 51.5816 87.4534 50.8356 87.3987 49.945H89.8361C89.9767 51.3355 90.8712 52.0308 92.5196 52.0308C93.3008 52.0308 93.918 51.8707 94.3711 51.5504C94.832 51.2301 95.0624 50.8238 95.0624 50.3317C95.0624 49.9098 94.8984 49.5739 94.5703 49.3239C94.2422 49.0661 93.8125 48.8786 93.2813 48.7614L91.2306 48.3044C88.8635 47.7888 87.6799 46.6092 87.6799 44.7655C87.6799 43.6718 88.1135 42.7812 88.9807 42.0937C89.8556 41.4062 91.0001 41.0625 92.4141 41.0625C93.8125 41.0625 94.9609 41.4258 95.8593 42.1523C96.7655 42.871 97.2342 43.8554 97.2655 45.1053H94.8984C94.8906 44.5038 94.664 44.0077 94.2187 43.6171C93.7734 43.2187 93.1836 43.0195 92.4493 43.0195C91.7462 43.0195 91.1876 43.1835 90.7736 43.5116C90.3595 43.8397 90.1525 44.2421 90.1525 44.7186C90.1525 45.1405 90.3087 45.4803 90.6212 45.7381C90.9415 45.9959 91.379 46.1873 91.9337 46.3123L94.043 46.781C95.246 47.0466 96.1327 47.4568 96.703 48.0114C97.2733 48.5661 97.5584 49.2926 97.5584 50.1911C97.5584 50.9801 97.3397 51.6597 96.9022 52.23C96.4726 52.7925 95.8827 53.23 95.1328 53.5425C94.3828 53.8472 93.5274 53.9995 92.5665 53.9995Z" fill="white"/>
<path d="M81.2371 53.9878C80.0106 53.9878 78.9559 53.7104 78.0731 53.1558C77.1982 52.6011 76.5224 51.8394 76.0459 50.8707C75.5771 49.8942 75.3428 48.7849 75.3428 47.5427C75.3428 46.285 75.5889 45.1678 76.081 44.1913C76.5732 43.2148 77.2529 42.4492 78.12 41.8945C78.9872 41.332 79.9832 41.0508 81.1082 41.0508C82.28 41.0508 83.2956 41.3242 84.1549 41.8711C85.0221 42.4179 85.6939 43.1796 86.1705 44.1561C86.647 45.1248 86.8853 46.2459 86.8853 47.5193V48.1872H77.7802C77.8271 49.3044 78.1474 50.2067 78.7411 50.8941C79.3426 51.5816 80.1863 51.9254 81.2722 51.9254C82.0847 51.9254 82.7526 51.7418 83.2761 51.3746C83.7995 51.0074 84.1471 50.5309 84.319 49.945H86.6978C86.5494 50.7418 86.2173 51.4449 85.7017 52.0543C85.194 52.6636 84.5534 53.1402 83.7799 53.4839C83.0143 53.8198 82.1667 53.9878 81.2371 53.9878ZM77.8036 46.3123H84.4713C84.3698 45.328 84.0221 44.5506 83.4284 43.9804C82.8347 43.4023 82.0691 43.1132 81.1316 43.1132C80.1941 43.1132 79.4286 43.4023 78.8348 43.9804C78.2489 44.5506 77.9052 45.328 77.8036 46.3123Z" fill="white"/>
<path d="M67.9283 53.9524C66.8502 53.9524 65.9088 53.6829 65.1041 53.1439C64.2995 52.597 63.6745 51.8431 63.2292 50.8822C62.7839 49.9135 62.5613 48.7925 62.5613 47.5191C62.5613 46.2457 62.7839 45.1286 63.2292 44.1677C63.6823 43.1989 64.3112 42.4451 65.1159 41.906C65.9205 41.3592 66.8541 41.0858 67.9165 41.0858C68.7212 41.0858 69.4555 41.2537 70.1196 41.5896C70.7836 41.9256 71.3148 42.4373 71.7133 43.1247H71.7367V36.2461H74.2093V53.7064H71.7836V51.8197H71.7601C71.3461 52.5384 70.8031 53.0736 70.1313 53.4251C69.4673 53.7767 68.7329 53.9524 67.9283 53.9524ZM68.4321 51.8197C69.4868 51.8197 70.3266 51.4291 70.9516 50.6479C71.5844 49.8588 71.9008 48.8159 71.9008 47.5191C71.9008 46.2145 71.5844 45.1715 70.9516 44.3903C70.3266 43.6013 69.4868 43.2068 68.4321 43.2068C67.4322 43.2068 66.6197 43.5778 65.9947 44.32C65.3776 45.0543 65.069 46.1207 65.069 47.5191C65.069 48.9175 65.3776 49.9838 65.9947 50.7182C66.6197 51.4525 67.4322 51.8197 68.4321 51.8197Z" fill="white"/>
<path d="M29.248 42.125C29.8823 42.125 30.475 42.2452 31.0254 42.4863C31.5809 42.7222 32.068 43.0505 32.4873 43.4697C32.9065 43.889 33.2348 44.3762 33.4707 44.9316C33.7065 45.482 33.8242 46.0722 33.8242 46.7012C33.8242 47.3302 33.7066 47.9229 33.4707 48.4785C33.2348 49.0289 32.9066 49.5133 32.4873 49.9326C32.068 50.3519 31.5809 50.6827 31.0254 50.9238C30.475 51.1597 29.8823 51.2773 29.248 51.2773C28.6191 51.2773 28.0263 51.1597 27.4707 50.9238C26.9204 50.6827 26.4359 50.3519 26.0166 49.9326C25.5973 49.5133 25.2665 49.0288 25.0254 48.4785C24.7895 47.9229 24.6719 47.3302 24.6719 46.7012C24.6719 46.0722 24.7895 45.482 25.0254 44.9316C25.2665 44.3761 25.5973 43.889 26.0166 43.4697C26.4359 43.0504 26.9204 42.7222 27.4707 42.4863C28.0263 42.2452 28.619 42.125 29.248 42.125ZM29.248 43.2256C28.6085 43.2256 28.0236 43.3828 27.4941 43.6973C26.97 44.0065 26.5508 44.4267 26.2363 44.9561C25.9272 45.4801 25.7725 46.0618 25.7725 46.7012C25.7725 47.3407 25.9271 47.9257 26.2363 48.4551C26.5508 48.979 26.9702 49.3985 27.4941 49.7129C28.0235 50.0221 28.6086 50.1768 29.248 50.1768C29.8928 50.1767 30.4778 50.0222 31.002 49.7129C31.5259 49.3984 31.9427 48.9791 32.252 48.4551C32.5665 47.9257 32.7236 47.3407 32.7236 46.7012C32.7236 46.0619 32.5663 45.4801 32.252 44.9561C31.9427 44.4267 31.526 44.0065 31.002 43.6973C30.4778 43.3828 29.8928 43.2256 29.248 43.2256ZM29.7832 44.5469C29.956 44.5418 30.1445 44.589 30.3486 44.6885C30.553 44.7828 30.7267 44.9298 30.8682 45.1289C31.0147 45.328 31.0879 45.58 31.0879 45.8838C31.0878 46.1772 31.02 46.4291 30.8838 46.6387C30.7476 46.8429 30.585 47.0029 30.3965 47.1182L31.2607 48.7617H30.2393L29.4922 47.3301H28.5723V48.7617H27.6436V44.5469H29.7832ZM28.5723 46.6387H29.4365C29.5623 46.6439 29.699 46.5828 29.8457 46.457C29.9922 46.3313 30.0654 46.1403 30.0654 45.8838C30.0654 45.627 29.9898 45.4534 29.8379 45.3643C29.6912 45.27 29.5622 45.2227 29.4521 45.2227H28.5723V46.6387Z" fill="white"/>
</svg>
