<svg width="127" height="54" viewBox="0 0 127 54" fill="none" xmlns="http://www.w3.org/2000/svg">
<path d="M27.332 0C42.2437 0 54.332 12.0883 54.332 27C54.332 41.9117 42.2437 54 27.332 54H0.332031V27.2285H22.7803C22.7801 20.7942 17.5643 15.5781 11.1299 15.5781H0.332031V0H27.332ZM22.7812 27.2295C16.3469 27.2295 11.1311 32.4456 11.1309 38.8799V53.999H22.7812V27.2295ZM34.4316 15.5781C27.9974 15.5782 22.7815 20.7943 22.7812 27.2285H44.6191V15.5781H34.4316Z" fill="#FF6333"/>
<path d="M112.803 24.7467V31.8714H110.33V14.4111H112.803V21.2781C113.654 19.9265 114.885 19.2508 116.494 19.2508C117.345 19.2508 118.107 19.4383 118.779 19.8133C119.459 20.1804 119.994 20.7273 120.384 21.4538C120.775 22.1804 120.97 23.0827 120.97 24.1608V31.8714H118.498V24.4654C118.498 23.4733 118.259 22.7272 117.783 22.2272C117.306 21.7194 116.642 21.4655 115.791 21.4655C114.947 21.4655 114.236 21.7273 113.658 22.2507C113.088 22.7663 112.803 23.5983 112.803 24.7467Z" fill="#330C00"/>
<path d="M104.192 32.1645C103.246 32.1645 102.395 32.0122 101.637 31.7075C100.879 31.4028 100.266 30.9497 99.7973 30.3482C99.3364 29.7467 99.0786 29.0006 99.0239 28.11H101.461C101.602 29.5006 102.496 30.1959 104.145 30.1959C104.926 30.1959 105.543 30.0357 105.996 29.7154C106.457 29.3951 106.688 28.9889 106.688 28.4967C106.688 28.0749 106.524 27.7389 106.196 27.4889C105.867 27.2311 105.438 27.0436 104.907 26.9265L102.856 26.4694C100.489 25.9538 99.3052 24.7742 99.3052 22.9305C99.3052 21.8368 99.7387 20.9462 100.606 20.2587C101.481 19.5713 102.625 19.2275 104.039 19.2275C105.438 19.2275 106.586 19.5908 107.485 20.3173C108.391 21.0361 108.859 22.0204 108.891 23.2704H106.524C106.516 22.6688 106.289 22.1727 105.844 21.7821C105.399 21.3837 104.809 21.1845 104.075 21.1845C103.371 21.1845 102.813 21.3486 102.399 21.6767C101.985 22.0048 101.778 22.4071 101.778 22.8836C101.778 23.3055 101.934 23.6453 102.246 23.9031C102.567 24.1609 103.004 24.3523 103.559 24.4773L105.668 24.9461C106.871 25.2117 107.758 25.6218 108.328 26.1765C108.899 26.7312 109.184 27.4577 109.184 28.3561C109.184 29.1451 108.965 29.8248 108.527 30.3951C108.098 30.9576 107.508 31.395 106.758 31.7075C106.008 32.0122 105.153 32.1645 104.192 32.1645Z" fill="#330C00"/>
<path d="M88.8816 32.1175C88.0769 32.1175 87.3387 31.9417 86.6668 31.5902C86.0028 31.2386 85.4638 30.7035 85.0497 29.9847H85.0263V31.8714H82.6006V14.4111H85.0731V21.2898H85.0966C85.495 20.6023 86.0262 20.0906 86.6903 19.7547C87.3543 19.4188 88.0887 19.2508 88.8933 19.2508C89.9558 19.2508 90.8893 19.5242 91.694 20.0711C92.4986 20.6101 93.1236 21.364 93.5689 22.3327C94.022 23.2936 94.2486 24.4107 94.2486 25.6841C94.2486 26.9575 94.0259 28.0786 93.5806 29.0473C93.1353 30.0082 92.5104 30.7621 91.7057 31.3089C90.901 31.848 89.9597 32.1175 88.8816 32.1175ZM88.3777 29.9847C89.3777 29.9847 90.1862 29.6176 90.8034 28.8832C91.4284 28.1489 91.7409 27.0825 91.7409 25.6841C91.7409 24.2858 91.4284 23.2194 90.8034 22.485C90.1862 21.7429 89.3777 21.3718 88.3777 21.3718C87.3231 21.3718 86.4793 21.7663 85.8466 22.5553C85.2216 23.3366 84.9091 24.3795 84.9091 25.6841C84.9091 26.981 85.2216 28.0239 85.8466 28.8129C86.4793 29.5941 87.3231 29.9847 88.3777 29.9847Z" fill="#330C00"/>
<path d="M74.7157 32.0708C73.4813 32.0708 72.4579 31.7583 71.6455 31.1333C70.833 30.5005 70.4268 29.567 70.4268 28.3327C70.4268 27.3952 70.6572 26.6765 71.1181 26.1765C71.5869 25.6687 72.1923 25.3054 72.9345 25.0867C73.6844 24.8679 74.4774 24.7078 75.3133 24.6062C76.0867 24.5125 76.7 24.4344 77.1531 24.3719C77.6062 24.3094 77.9265 24.2156 78.114 24.0906C78.3093 23.9656 78.4069 23.7508 78.4069 23.4461V23.3407C78.4069 22.7391 78.1882 22.247 77.7507 21.8642C77.3132 21.4735 76.7 21.2782 75.9109 21.2782C75.1219 21.2782 74.4774 21.4696 73.9774 21.8524C73.4774 22.2274 73.204 22.7001 73.1571 23.2704H70.7314C70.7861 22.0907 71.2822 21.1259 72.2197 20.3759C73.1571 19.626 74.3993 19.251 75.9461 19.251C77.4695 19.251 78.6686 19.626 79.5436 20.3759C80.4186 21.1259 80.856 22.1298 80.856 23.3875V31.8716H78.4186V30.1138H78.3718C78.114 30.6138 77.7038 31.0669 77.1413 31.4732C76.5867 31.8716 75.7781 32.0708 74.7157 32.0708ZM75.2195 30.0787C76.3132 30.0787 77.1179 29.7974 77.6335 29.235C78.1569 28.6647 78.4186 28.0006 78.4186 27.2429V25.7898C78.2546 25.9226 77.8835 26.0437 77.3054 26.1531C76.7273 26.2546 76.1101 26.3523 75.4539 26.446C74.7742 26.5476 74.1766 26.739 73.661 27.0202C73.1454 27.3014 72.8876 27.7546 72.8876 28.3795C72.8876 28.9108 73.0946 29.3287 73.5087 29.6334C73.9305 29.9302 74.5008 30.0787 75.2195 30.0787Z" fill="#330C00"/>
<path d="M69.7273 19.4969V21.5359H67.2195V28.6021C67.2195 29.063 67.3133 29.3833 67.5008 29.563C67.6883 29.7426 68.0281 29.8325 68.5203 29.8325H69.7273V31.8715H68.1687C65.8798 31.8715 64.7353 30.8871 64.7353 28.9184V21.5359H62.5557V19.4969H64.7353V16.1221H67.2195V19.4969H69.7273Z" fill="#330C00"/>
<path d="M124.71 31.871C124.257 31.871 123.87 31.7147 123.55 31.4022C123.237 31.0819 123.081 30.6913 123.081 30.2304C123.081 29.7773 123.237 29.3906 123.55 29.0703C123.87 28.75 124.257 28.5898 124.71 28.5898C125.171 28.5898 125.558 28.75 125.87 29.0703C126.19 29.3906 126.35 29.7773 126.35 30.2304C126.35 30.6913 126.19 31.0819 125.87 31.4022C125.558 31.7147 125.171 31.871 124.71 31.871Z" fill="#330C00"/>
<path d="M95.3823 31.8714V19.4969H97.8549V31.8714H95.3823ZM96.6127 17.3641C96.1753 17.3641 95.8042 17.2196 95.4995 16.9306C95.2026 16.6337 95.0542 16.2743 95.0542 15.8525C95.0542 15.4228 95.2026 15.0634 95.4995 14.7744C95.8042 14.4775 96.1753 14.3291 96.6127 14.3291C97.0502 14.3291 97.4213 14.4775 97.726 14.7744C98.0306 15.0634 98.183 15.4228 98.183 15.8525C98.183 16.2743 98.0306 16.6337 97.726 16.9306C97.4213 17.2196 97.0502 17.3641 96.6127 17.3641Z" fill="#330C00"/>
<path d="M118.183 46.5818V53.7065H115.71V41.332H118.136V43.1952C118.979 41.789 120.225 41.0859 121.874 41.0859C122.725 41.0859 123.487 41.2734 124.159 41.6484C124.839 42.0156 125.374 42.5624 125.764 43.289C126.155 44.0155 126.35 44.9178 126.35 45.9959V53.7065H123.878V46.3006C123.878 45.3084 123.639 44.5624 123.163 44.0624C122.686 43.5546 122.022 43.3007 121.171 43.3007C120.327 43.3007 119.616 43.5624 119.038 44.0858C118.468 44.6014 118.183 45.4334 118.183 46.5818Z" fill="#330C00"/>
<path d="M108.418 36.3151C109.934 36.3151 111.172 36.6511 112.133 37.3229C113.094 37.9948 113.656 38.9361 113.82 40.147L111.348 40.147C111.192 39.5455 110.852 39.0924 110.328 38.7877C109.805 38.483 109.168 38.3307 108.418 38.3307C107.418 38.3307 106.637 38.6002 106.075 39.1392C105.512 39.6783 105.231 40.4478 105.231 41.4478L105.231 43.3227L105.243 43.3227C105.672 42.604 106.215 42.0727 106.871 41.729C107.52 41.3853 108.25 41.2134 109.063 41.2134C110.141 41.2134 111.082 41.4829 111.887 42.0219C112.691 42.5688 113.316 43.3188 113.762 44.2719C114.207 45.2328 114.43 46.3421 114.43 47.5999C114.43 48.8576 114.207 49.967 113.762 50.9279C113.309 51.8888 112.68 52.6387 111.875 53.1778C111.07 53.7246 110.137 53.998 109.074 53.998C108.27 53.998 107.532 53.8262 106.86 53.4824C106.188 53.1387 105.645 52.5997 105.231 51.8653L105.219 51.8653L105.219 53.752L102.782 53.752L102.782 41.5415C102.782 40.2915 103.036 39.2838 103.543 38.5182C104.051 37.7526 104.731 37.194 105.582 36.8425C106.434 36.4909 107.379 36.3151 108.418 36.3151ZM108.559 43.3344C107.504 43.3344 106.664 43.7211 106.039 44.4945C105.407 45.2757 105.09 46.3148 105.09 47.6116C105.09 48.9084 105.407 49.9435 106.039 50.7169C106.664 51.4981 107.504 51.8888 108.559 51.8888C109.559 51.8888 110.371 51.5216 110.996 50.7872C111.613 50.0607 111.922 49.0021 111.922 47.6116C111.922 46.221 111.613 45.1585 110.996 44.4242C110.371 43.6977 109.559 43.3344 108.559 43.3344Z" fill="#330C00"/>
<path d="M98.6987 53.7063V41.3318H101.171V53.7063H98.6987ZM99.9291 39.1991C99.4917 39.1991 99.1206 39.0546 98.8159 38.7655C98.519 38.4687 98.3706 38.1093 98.3706 37.6874C98.3706 37.2578 98.519 36.8984 98.8159 36.6094C99.1206 36.3125 99.4917 36.1641 99.9291 36.1641C100.367 36.1641 100.738 36.3125 101.042 36.6094C101.347 36.8984 101.499 37.2578 101.499 37.6874C101.499 38.1093 101.347 38.4687 101.042 38.7655C100.738 39.0546 100.367 39.1991 99.9291 39.1991Z" fill="#330C00"/>
<path d="M92.5608 53.9995C91.6156 53.9995 90.764 53.8472 90.0062 53.5425C89.2485 53.2378 88.6352 52.7847 88.1665 52.1832C87.7056 51.5816 87.4478 50.8356 87.3931 49.945H89.8305C89.9711 51.3355 90.8656 52.0308 92.514 52.0308C93.2952 52.0308 93.9123 51.8707 94.3655 51.5504C94.8264 51.2301 95.0568 50.8238 95.0568 50.3317C95.0568 49.9098 94.8928 49.5739 94.5647 49.3239C94.2366 49.0661 93.8069 48.8786 93.2757 48.7614L91.2249 48.3044C88.8579 47.7888 87.6743 46.6092 87.6743 44.7655C87.6743 43.6718 88.1079 42.7812 88.975 42.0937C89.85 41.4062 90.9945 41.0625 92.4085 41.0625C93.8069 41.0625 94.9553 41.4258 95.8537 42.1523C96.7599 42.871 97.2286 43.8554 97.2599 45.1053H94.8928C94.885 44.5038 94.6584 44.0077 94.2131 43.6171C93.7678 43.2187 93.178 43.0195 92.4437 43.0195C91.7406 43.0195 91.182 43.1835 90.7679 43.5116C90.3539 43.8397 90.1469 44.2421 90.1469 44.7186C90.1469 45.1405 90.3031 45.4803 90.6156 45.7381C90.9359 45.9959 91.3734 46.1873 91.928 46.3123L94.0373 46.781C95.2404 47.0466 96.1271 47.4568 96.6974 48.0114C97.2677 48.5661 97.5528 49.2926 97.5528 50.1911C97.5528 50.9801 97.3341 51.6597 96.8966 52.23C96.4669 52.7925 95.8771 53.23 95.1271 53.5425C94.3772 53.8472 93.5217 53.9995 92.5608 53.9995Z" fill="#330C00"/>
<path d="M81.2312 53.9878C80.0047 53.9878 78.9501 53.7104 78.0673 53.1558C77.1923 52.6011 76.5166 51.8394 76.04 50.8707C75.5713 49.8942 75.3369 48.7849 75.3369 47.5427C75.3369 46.285 75.583 45.1678 76.0752 44.1913C76.5673 43.2148 77.247 42.4492 78.1141 41.8945C78.9813 41.332 79.9774 41.0508 81.1023 41.0508C82.2741 41.0508 83.2897 41.3242 84.1491 41.8711C85.0162 42.4179 85.6881 43.1796 86.1646 44.1561C86.6412 45.1248 86.8794 46.2459 86.8794 47.5193V48.1872H77.7743C77.8212 49.3044 78.1415 50.2067 78.7352 50.8941C79.3368 51.5816 80.1805 51.9254 81.2664 51.9254C82.0788 51.9254 82.7468 51.7418 83.2702 51.3746C83.7936 51.0074 84.1413 50.5309 84.3131 49.945H86.6919C86.5435 50.7418 86.2115 51.4449 85.6959 52.0543C85.1881 52.6636 84.5475 53.1402 83.7741 53.4839C83.0085 53.8198 82.1609 53.9878 81.2312 53.9878ZM77.7978 46.3123H84.4655C84.3639 45.328 84.0163 44.5506 83.4225 43.9804C82.8288 43.4023 82.0632 43.1132 81.1258 43.1132C80.1883 43.1132 79.4227 43.4023 78.829 43.9804C78.2431 44.5506 77.8993 45.328 77.7978 46.3123Z" fill="#330C00"/>
<path d="M67.9226 53.9524C66.8446 53.9524 65.9032 53.6829 65.0985 53.1439C64.2939 52.597 63.6689 51.8431 63.2236 50.8822C62.7783 49.9135 62.5557 48.7925 62.5557 47.5191C62.5557 46.2457 62.7783 45.1286 63.2236 44.1677C63.6767 43.1989 64.3056 42.4451 65.1103 41.906C65.9149 41.3592 66.8485 41.0858 67.9109 41.0858C68.7156 41.0858 69.4499 41.2537 70.114 41.5896C70.778 41.9256 71.3092 42.4373 71.7077 43.1247H71.7311V36.2461H74.2037V53.7064H71.778V51.8197H71.7545C71.3405 52.5384 70.7975 53.0736 70.1257 53.4251C69.4616 53.7767 68.7273 53.9524 67.9226 53.9524ZM68.4265 51.8197C69.4812 51.8197 70.321 51.4291 70.946 50.6479C71.5788 49.8588 71.8951 48.8159 71.8951 47.5191C71.8951 46.2145 71.5788 45.1715 70.946 44.3903C70.321 43.6013 69.4812 43.2068 68.4265 43.2068C67.4266 43.2068 66.6141 43.5778 65.9891 44.32C65.372 45.0543 65.0634 46.1207 65.0634 47.5191C65.0634 48.9175 65.372 49.9838 65.9891 50.7182C66.6141 51.4525 67.4266 51.8197 68.4265 51.8197Z" fill="#330C00"/>
<path d="M29.2422 42.125C29.8764 42.125 30.4692 42.2452 31.0195 42.4863C31.575 42.7222 32.0622 43.0505 32.4814 43.4697C32.9007 43.889 33.229 44.3762 33.4648 44.9316C33.7007 45.482 33.8184 46.0722 33.8184 46.7012C33.8183 47.3302 33.7007 47.9229 33.4648 48.4785C33.229 49.0289 32.9008 49.5133 32.4814 49.9326C32.0621 50.3519 31.5751 50.6827 31.0195 50.9238C30.4692 51.1597 29.8764 51.2773 29.2422 51.2773C28.6132 51.2773 28.0205 51.1597 27.4648 50.9238C26.9146 50.6827 26.43 50.3519 26.0107 49.9326C25.5915 49.5133 25.2606 49.0288 25.0195 48.4785C24.7837 47.9229 24.666 47.3302 24.666 46.7012C24.666 46.0722 24.7837 45.482 25.0195 44.9316C25.2607 44.3761 25.5914 43.889 26.0107 43.4697C26.4301 43.0504 26.9145 42.7222 27.4648 42.4863C28.0205 42.2452 28.6132 42.125 29.2422 42.125ZM29.2422 43.2256C28.6027 43.2256 28.0177 43.3828 27.4883 43.6973C26.9642 44.0065 26.5449 44.4267 26.2305 44.9561C25.9214 45.4801 25.7666 46.0618 25.7666 46.7012C25.7666 47.3407 25.9212 47.9257 26.2305 48.4551C26.5449 48.979 26.9643 49.3985 27.4883 49.7129C28.0177 50.0221 28.6027 50.1768 29.2422 50.1768C29.8869 50.1767 30.4719 50.0222 30.9961 49.7129C31.5201 49.3984 31.9369 48.9791 32.2461 48.4551C32.5606 47.9257 32.7178 47.3407 32.7178 46.7012C32.7178 46.0619 32.5604 45.4801 32.2461 44.9561C31.9369 44.4267 31.5201 44.0065 30.9961 43.6973C30.4719 43.3828 29.8869 43.2256 29.2422 43.2256ZM29.7773 44.5469C29.9501 44.5418 30.1386 44.589 30.3428 44.6885C30.5471 44.7828 30.7208 44.9298 30.8623 45.1289C31.0089 45.328 31.082 45.58 31.082 45.8838C31.082 46.1772 31.0142 46.4291 30.8779 46.6387C30.7417 46.8429 30.5792 47.0029 30.3906 47.1182L31.2549 48.7617H30.2334L29.4863 47.3301H28.5664V48.7617H27.6377V44.5469H29.7773ZM28.5664 46.6387H29.4307C29.5564 46.6439 29.6931 46.5828 29.8398 46.457C29.9864 46.3313 30.0595 46.1403 30.0596 45.8838C30.0596 45.627 29.984 45.4534 29.832 45.3643C29.6853 45.27 29.5563 45.2227 29.4463 45.2227H28.5664V46.6387Z" fill="white"/>
</svg>
