<svg width="54" height="55" viewBox="0 0 54 55" fill="none" xmlns="http://www.w3.org/2000/svg">
<path fill-rule="evenodd" clip-rule="evenodd" d="M47.2499 27.9805C47.2499 16.8066 38.1465 7.73047 26.8947 7.73047V3.23047C40.612 3.23047 51.7499 14.3015 51.7499 27.9805C51.7499 41.6594 40.612 52.7305 26.8947 52.7305C11.4431 52.7305 2.79081 41.5765 2.27456 30.6325C2.01703 25.1731 3.77912 19.6697 7.81921 15.6746C11.8871 11.652 18.0218 9.3956 26.037 9.98656C34.6955 10.6249 42.815 18.6681 42.815 27.9805C42.815 33.5261 41.077 37.8443 37.8865 40.7527C34.7319 43.6283 30.453 44.8555 25.8716 44.8555C16.7609 44.8555 11.1845 38.2502 10.5766 31.6753C10.2718 28.3785 11.2097 24.9703 13.7095 22.4726C16.2262 19.9582 20.0347 18.6531 24.9079 18.9857C29.1959 19.2783 33.7863 22.8073 33.7863 27.9805C33.7863 30.5254 33.1124 32.8488 31.4874 34.5407C29.8485 36.247 27.5608 36.9805 25.0225 36.9805V32.4805C26.7117 32.4805 27.6808 32.0077 28.2419 31.4235C28.817 30.8248 29.2863 29.7731 29.2863 27.9805C29.2863 25.6977 27.0899 23.6451 24.6015 23.4752C20.6866 23.2081 18.2723 24.275 16.8901 25.656C15.4912 27.0537 14.8544 29.0641 15.0575 31.261C15.4654 35.6735 19.2356 40.3555 25.8716 40.3555C29.6968 40.3555 32.7645 39.3326 34.855 37.427C36.9096 35.5541 38.315 32.5598 38.315 27.9805C38.315 21.1385 32.1291 14.9479 25.7062 14.4744C18.7307 13.9601 13.9585 15.9323 10.9833 18.8743C7.98029 21.8439 6.56298 26.0411 6.76956 30.4205C7.18155 39.1542 14.0316 48.2305 26.8947 48.2305C38.1465 48.2305 47.2499 39.1544 47.2499 27.9805Z" fill="#FF6333"/>
</svg>
