<svg width="55" height="55" viewBox="0 0 55 55" fill="none" xmlns="http://www.w3.org/2000/svg">
<path fill-rule="evenodd" clip-rule="evenodd" d="M47.85 27.9805C47.85 16.8066 38.7466 7.73047 27.4948 7.73047V3.23047C41.2121 3.23047 52.35 14.3015 52.35 27.9805C52.35 41.6594 41.2121 52.7305 27.4948 52.7305C12.0432 52.7305 3.39091 41.5765 2.87466 30.6325C2.61713 25.1731 4.37921 19.6697 8.41931 15.6746C12.4872 11.652 18.6219 9.3956 26.6371 9.98656C35.2956 10.6249 43.4151 18.6681 43.4151 27.9805C43.4151 33.5261 41.6771 37.8443 38.4866 40.7527C35.332 43.6283 31.0531 44.8555 26.4717 44.8555C17.361 44.8555 11.7846 38.2502 11.1767 31.6753C10.8719 28.3785 11.8098 24.9703 14.3096 22.4726C16.8263 19.9582 20.6347 18.6531 25.508 18.9857C29.7959 19.2783 34.3864 22.8073 34.3864 27.9805C34.3864 30.5254 33.7125 32.8488 32.0875 34.5407C30.4486 36.247 28.1609 36.9805 25.6226 36.9805V32.4805C27.3118 32.4805 28.2809 32.0077 28.842 31.4235C29.4171 30.8248 29.8864 29.7731 29.8864 27.9805C29.8864 25.6977 27.69 23.6451 25.2016 23.4752C21.2867 23.2081 18.8724 24.275 17.4902 25.656C16.0913 27.0537 15.4544 29.0641 15.6576 31.261C16.0655 35.6735 19.8357 40.3555 26.4717 40.3555C30.2969 40.3555 33.3646 39.3326 35.4551 37.427C37.5097 35.5541 38.9151 32.5598 38.9151 27.9805C38.9151 21.1385 32.7292 14.9479 26.3063 14.4744C19.3308 13.9601 14.5586 15.9323 11.5834 18.8743C8.58039 21.8439 7.16308 26.0411 7.36966 30.4205C7.78165 39.1542 14.6317 48.2305 27.4948 48.2305C38.7466 48.2305 47.85 39.1544 47.85 27.9805Z" fill="#FF6333"/>
</svg>
