<svg width="55" height="55" viewBox="0 0 55 55" fill="none" xmlns="http://www.w3.org/2000/svg">
<path d="M27.9335 16.7952C26.7304 16.7312 25.1009 16.7305 22.8061 16.7305H18.8V12.2305H22.8767H22.8768C25.0853 12.2305 26.8352 12.2305 28.1724 12.3015C29.458 12.3699 30.7103 12.5116 31.7203 12.9908C35.5832 14.8239 37.2777 19.4045 35.5377 23.3102C35.0827 24.3313 34.2241 25.254 33.2925 26.1425C32.3235 27.0667 30.9948 28.2055 29.318 29.6428L29.2643 29.6888C27.522 31.1822 26.2852 32.2433 25.4134 33.0748C24.4939 33.9518 24.2336 34.3459 24.173 34.482C23.4273 36.1559 24.1535 38.119 25.809 38.9046C25.9436 38.9685 26.3977 39.0983 27.6666 39.1658C28.8697 39.2297 30.4992 39.2305 32.794 39.2305H36.8V43.7305H32.7234H32.7233C30.5148 43.7305 28.7649 43.7305 27.4277 43.6594C26.1421 43.5911 24.8898 43.4493 23.8798 42.9701C20.0169 41.1371 18.3224 36.5565 20.0624 32.6507C20.5174 31.6296 21.376 30.707 22.3076 29.8184C23.2766 28.8942 24.6052 27.7554 26.2821 26.3182L26.3358 26.2721C28.0781 24.7787 29.3149 23.7176 30.1867 22.8861C31.1062 22.0091 31.3665 21.615 31.4271 21.4789C32.1728 19.805 31.4466 17.8419 29.7911 17.0563C29.6565 16.9925 29.2024 16.8626 27.9335 16.7952Z" fill="#FF6333"/>
<path d="M20.4875 14.4805C20.4875 9.82057 16.71 6.04297 12.05 6.04297C7.39015 6.04297 3.61255 9.82057 3.61255 14.4805C3.61255 19.1404 7.39015 22.918 12.05 22.918C16.71 22.918 20.4875 19.1404 20.4875 14.4805Z" fill="#FF6333"/>
<path d="M51.9875 41.4805C51.9875 36.8206 48.21 33.043 43.55 33.043C38.8901 33.043 35.1125 36.8206 35.1125 41.4805C35.1125 46.1404 38.8901 49.918 43.55 49.918C48.21 49.918 51.9875 46.1404 51.9875 41.4805Z" fill="#FF6333"/>
</svg>
