<svg width="21" height="20" viewBox="0 0 21 20" fill="none" xmlns="http://www.w3.org/2000/svg">
<path d="M0.0429688 20.0075L1.47909 14.6724C0.320894 12.5941 -0.0470762 10.1689 0.442702 7.84183C0.93248 5.51476 2.24715 3.44192 4.14548 2.00366C6.0438 0.565411 8.39844 -0.141776 10.7773 0.0118724C13.1562 0.165521 15.3997 1.1697 17.0962 2.84014C18.7928 4.51058 19.8284 6.73523 20.0133 9.10587C20.1981 11.4765 19.5196 13.8341 18.1024 15.7461C16.6851 17.658 14.6242 18.996 12.2977 19.5146C9.97124 20.0332 7.53531 19.6976 5.4369 18.5694L0.0429688 20.0075ZM5.69699 16.5729L6.03058 16.7703C7.5505 17.6689 9.32574 18.0408 11.0797 17.8279C12.8336 17.6151 14.4676 16.8295 15.7272 15.5936C16.9868 14.3578 17.8011 12.741 18.0433 10.9953C18.2855 9.24953 17.9419 7.47294 17.0661 5.94232C16.1903 4.4117 14.8315 3.21305 13.2015 2.53314C11.5714 1.85324 9.76162 1.73029 8.05418 2.18344C6.34673 2.63659 4.83753 3.64039 3.76175 5.03842C2.68598 6.43645 2.10406 8.15017 2.10669 9.91252C2.10526 11.3738 2.51042 12.8068 3.27707 14.052L3.48627 14.396L2.6834 17.3738L5.69699 16.5729Z" fill="white"/>
<path fill-rule="evenodd" clip-rule="evenodd" d="M13.7931 11.2824C13.5976 11.1251 13.3686 11.0144 13.1236 10.9587C12.8787 10.903 12.6242 10.9038 12.3796 10.961C12.0121 11.1133 11.7746 11.6885 11.5372 11.9761C11.4871 12.0451 11.4135 12.0934 11.3302 12.1121C11.247 12.1308 11.1597 12.1185 11.0849 12.0776C9.73939 11.552 8.6116 10.5881 7.88468 9.34241C7.82268 9.26468 7.79334 9.16598 7.80283 9.0671C7.81232 8.96822 7.85991 8.87687 7.93557 8.81228C8.20042 8.55075 8.39489 8.22683 8.50097 7.87047C8.52453 7.47739 8.43424 7.08585 8.24089 6.74254C8.09141 6.26123 7.80692 5.83265 7.42105 5.50746C7.22203 5.41817 7.00136 5.38824 6.78566 5.42126C6.56996 5.45428 6.36845 5.54885 6.20544 5.69356C5.92244 5.93711 5.69781 6.24087 5.5481 6.58248C5.39838 6.92409 5.3274 7.29484 5.34037 7.66744C5.34125 7.87667 5.36783 8.08501 5.41953 8.2878C5.55082 8.77501 5.75272 9.24049 6.01886 9.66951C6.21086 9.99815 6.42036 10.3163 6.64645 10.6226C7.38122 11.6287 8.30484 12.4829 9.36604 13.1379C9.89856 13.4707 10.4677 13.7413 11.0622 13.9444C11.6798 14.2236 12.3617 14.3308 13.0355 14.2545C13.4194 14.1966 13.7831 14.0454 14.0947 13.8143C14.4062 13.5832 14.656 13.2793 14.8222 12.9292C14.9198 12.7178 14.9494 12.4814 14.907 12.2525C14.8052 11.7844 14.1776 11.508 13.7931 11.2824Z" fill="white"/>
</svg>
